HIERARCHY
ROOT Hips
{
	OFFSET -80.168388 91.772041 -268.984589
	CHANNELS 6 Xposition Yposition Zposition Zrotation Yrotation Xrotation 
	JOINT LeftUpLeg
	{
		OFFSET 0.103457 1.857818 10.548502
		CHANNELS 3 Zrotation Yrotation Xrotation
		JOINT LeftLeg
		{
			OFFSET 43.500000 -0.000011 -0.000004
			CHANNELS 3 Zrotation Yrotation Xrotation
			JOINT LeftFoot
			{
				OFFSET 42.372192 -0.000004 -0.000008
				CHANNELS 3 Zrotation Yrotation Xrotation
				JOINT LeftToe
				{
					OFFSET 17.300014 0.000006 0.000001
					CHANNELS 3 Zrotation Yrotation Xrotation
					End Site
					{
						OFFSET 0.000000 0.000000 0.000000
					}
				}
			}
		}
	}
	JOINT RightUpLeg
	{
		OFFSET 0.103457 1.857817 -10.548505
		CHANNELS 3 Zrotation Yrotation Xrotation
		JOINT RightLeg
		{
			OFFSET 43.500046 -0.000004 0.000011
			CHANNELS 3 Zrotation Yrotation Xrotation
			JOINT RightFoot
			{
				OFFSET 42.372257 0.000000 0.000015
				CHANNELS 3 Zrotation Yrotation Xrotation
				JOINT RightToe
				{
					OFFSET 17.300003 -0.000000 0.000002
					CHANNELS 3 Zrotation Yrotation Xrotation
					End Site
					{
						OFFSET 0.000000 0.000000 0.000000
					}
				}
			}
		}
	}
	JOINT Spine
	{
		OFFSET 6.901961 -2.603721 -0.000001
		CHANNELS 3 Zrotation Yrotation Xrotation
		JOINT Spine1
		{
			OFFSET 12.588108 0.000002 -0.000001
			CHANNELS 3 Zrotation Yrotation Xrotation
			JOINT Spine2
			{
				OFFSET 12.343199 -0.000020 0.000006
				CHANNELS 3 Zrotation Yrotation Xrotation
				JOINT Neck
				{
					OFFSET 25.832905 0.000017 0.000000
					CHANNELS 3 Zrotation Yrotation Xrotation
					JOINT Head
					{
						OFFSET 11.766604 -0.000006 0.000004
						CHANNELS 3 Zrotation Yrotation Xrotation
						End Site
						{
							OFFSET 0.000000 0.000000 0.000000
						}
					}
				}
				JOINT LeftShoulder
				{
					OFFSET 19.745903 -1.480350 6.000100
					CHANNELS 3 Zrotation Yrotation Xrotation
					JOINT LeftArm
					{
						OFFSET 11.284130 -0.000016 -0.000016
						CHANNELS 3 Zrotation Yrotation Xrotation
						JOINT LeftForeArm
						{
							OFFSET 33.000046 0.000004 0.000031
							CHANNELS 3 Zrotation Yrotation Xrotation
							JOINT LeftHand
							{
								OFFSET 25.199999 0.000027 0.000001
								CHANNELS 3 Zrotation Yrotation Xrotation
								End Site
								{
									OFFSET 0.000000 0.000000 0.000000
								}
							}
						}
					}
				}
				JOINT RightShoulder
				{
					OFFSET 19.746094 -1.480375 -6.000080
					CHANNELS 3 Zrotation Yrotation Xrotation
					JOINT RightArm
					{
						OFFSET 11.284131 -0.000016 -0.000017
						CHANNELS 3 Zrotation Yrotation Xrotation
						JOINT RightForeArm
						{
							OFFSET 33.000095 0.000009 0.000020
							CHANNELS 3 Zrotation Yrotation Xrotation
							JOINT RightHand
							{
								OFFSET 25.199789 0.000132 0.000423
								CHANNELS 3 Zrotation Yrotation Xrotation
								End Site
								{
									OFFSET 0.000000 0.000000 0.000000
								}
							}
						}
					}
				}
			}
		}
	}
}
MOTION
Frames: 8
Frame Time: 0.033333
-9.120263 79.324760 340.845215 85.508456 -3.399583 109.793003 160.019270 3.387807 -170.430295 -69.616430 0.147856 -2.540970 93.294414 1.680101 -0.285037 21.454550 0.003095 -0.000005 129.294142 4.631604 159.289984 -28.267262 0.458175 7.477029 76.452575 -4.176459 4.200286 21.454557 -0.003116 -0.000023 14.874776 -0.000375 1.833332 19.731805 -0.313623 3.639561 19.414403 -0.291516 3.641410 10.529860 -18.424261 -11.287849 -29.066457 18.872835 -22.824348 164.510994 -76.125095 14.313108 6.207970 65.408323 -6.865039 -131.839604 1.585943 3.952299 -7.918510 -9.098083 10.186355 169.124691 73.511263 -9.735782 -24.146187 -53.818800 5.499094 -96.259775 2.610959 -2.809559 -16.584345 7.073256 -41.185252 
-8.119936 79.070152 350.930511 84.718279 -2.115100 110.906406 165.878794 3.589300 -166.047049 -72.721994 0.664168 -4.504759 86.414426 2.619975 -2.516174 21.454550 0.003099 -0.000004 133.094979 6.241184 164.704575 -18.627463 1.504914 6.660193 76.383187 -3.452924 4.885040 21.454560 -0.003106 -0.000018 14.270053 0.457967 1.676006 18.537147 0.641201 3.403676 18.219641 0.661852 3.399765 12.415839 -15.871855 -10.703230 -28.360894 16.884890 -20.620652 170.811201 -75.936718 7.892848 16.250263 63.557991 10.588482 -140.284299 0.587444 4.305877 -10.690493 -7.091254 18.865520 174.562505 72.533815 -4.190117 -13.713702 -54.781303 -2.268700 -98.612871 2.054791 -2.876067 -15.554023 6.069492 -40.344182 
-7.101213 78.474869 361.050812 84.719925 0.005283 112.239290 169.334583 4.347196 -162.552765 -80.368787 1.437749 -4.392072 77.519806 1.476952 -5.782570 21.454550 0.003093 0.000004 134.655458 7.112102 173.622644 -25.541475 1.693384 6.626206 71.359105 -2.302412 7.858009 21.454558 -0.003106 -0.000017 13.787527 0.727993 1.548057 17.580152 1.211955 3.188898 17.262511 1.231313 3.181546 14.814072 -12.473077 -10.372769 -28.103047 14.653988 -18.679061 173.769247 -76.428908 4.859481 25.545206 61.527778 27.614207 -144.344191 -0.268231 4.488315 -11.579040 -3.655931 26.408911 -179.273382 71.774572 2.126882 -7.699089 -54.385395 -5.784001 -100.035203 1.705587 -2.915270 -14.650196 5.574733 -39.523866 
-5.976425 77.448769 370.760803 84.259235 3.085999 112.852811 170.825189 5.074405 -161.411276 -90.479024 2.579380 -3.566474 74.869761 1.261368 -3.807420 21.454555 0.003093 0.000004 135.231667 7.237393 -178.233308 -38.782268 0.792898 3.791122 61.453329 2.007346 11.368538 21.454555 -0.003104 -0.000017 13.530103 1.070004 1.681989 17.078572 1.879611 3.504021 16.760929 1.900857 3.492647 16.384857 -10.138530 -9.997641 -28.448214 13.008525 -17.318863 174.610398 -76.739231 3.993121 34.094802 60.043633 39.499131 -142.713497 -0.398150 4.448792 -9.340851 0.373912 28.166489 -175.654092 71.781081 5.849444 -7.907003 -53.068005 -3.013895 -100.328901 1.588590 -2.920225 -14.081470 5.565745 -39.117467 
-4.712428 76.588242 380.259399 83.684010 6.323504 112.873514 169.561058 5.261908 -162.624045 -100.446299 3.501430 -3.000371 78.307026 1.077338 -3.151283 21.454555 0.003090 0.000001 136.755140 7.576203 -172.645080 -53.900875 1.733749 0.652841 73.035650 1.634762 6.706748 21.454558 -0.003114 -0.000019 13.482432 1.450902 1.960384 17.003262 2.597499 4.113917 16.685717 2.622406 4.098196 16.915851 -9.677844 -9.540615 -29.151749 12.428587 -16.604779 176.144718 -76.009733 2.445015 38.503788 59.840763 43.344240 -134.308703 -0.205919 4.162386 -5.779877 3.355179 27.698063 -177.043394 72.009865 4.423281 -13.006621 -50.041511 5.325013 -99.380858 1.748053 -2.888997 -13.834748 6.199796 -38.983042 
-3.384955 76.619049 389.503815 83.802391 8.573421 112.532899 165.318418 5.551806 -165.870707 -106.971001 3.887981 -3.766186 78.276331 2.046498 -1.524031 21.454541 0.003087 -0.000004 141.741807 7.523102 -169.079134 -62.039114 1.811984 -1.256191 82.695388 1.883027 4.407778 21.454558 -0.003106 -0.000016 13.450625 1.568217 2.305115 16.952229 2.781235 4.816733 16.634946 2.810370 4.799900 16.939484 -10.174000 -9.015191 -29.677619 12.426584 -16.132955 178.253922 -74.910216 0.312677 36.905472 61.208453 41.509252 -120.239415 -0.681167 3.664438 -2.625411 3.226354 30.816844 178.563780 71.882864 -0.094790 -19.184099 -45.480703 14.780507 -97.921738 2.121806 -2.849817 -13.801000 7.043220 -39.585198 
-1.980107 77.775528 397.912903 83.627859 9.688057 111.950489 158.241754 5.312892 -169.621259 -108.698909 3.855500 -4.326866 76.798613 2.535638 -1.207953 21.454543 0.003095 0.000002 148.430953 6.286798 -166.985243 -63.833213 1.676664 -2.274800 89.100774 2.144264 3.318863 21.454562 -0.003105 -0.000016 13.269274 1.478109 2.792825 16.594138 2.539749 5.770315 16.277466 2.574619 5.754947 16.409714 -10.403328 -8.341965 -29.701863 12.298190 -15.401969 179.203195 -74.547724 -0.651801 32.031521 62.673345 37.551519 -105.377402 -1.987878 3.125850 -0.346327 -0.089270 36.694027 175.612291 72.209894 -3.120428 -24.342792 -41.853692 22.206092 -97.545777 2.327191 -2.847327 -14.086621 7.569009 -41.038649 
-0.385664 79.860573 405.861786 83.602410 9.810311 111.173801 150.983381 4.240804 -173.753701 -104.758402 3.430340 -3.855950 76.215055 2.464826 -0.444267 21.454539 0.003085 -0.000003 155.879178 4.569603 -166.548685 -61.222004 1.724075 -2.660283 92.406387 2.191451 2.612196 21.454558 -0.003100 -0.000021 12.966223 1.082223 3.281654 15.971276 1.700329 6.682018 15.655374 1.740694 6.671707 15.010927 -9.958451 -7.533987 -29.379102 11.919632 -14.399927 179.503286 -74.830207 -0.964285 29.675092 62.020529 35.869855 -95.487670 -3.264961 2.777282 0.327570 -3.477203 41.562480 175.844723 73.819810 -2.843077 -28.173405 -41.039301 27.008308 -99.184251 1.944866 -2.893943 -14.226737 8.398845 -40.778241 
